<svg width="100" height="100" viewBox="0 0 100 100" fill="none" xmlns="http://www.w3.org/2000/svg">
<path d="M90.2395 77.9304C88.7314 81.4241 86.9462 84.64 84.8779 87.5967C82.0586 91.6275 79.7503 94.4175 77.9713 95.9669C75.2135 98.51 72.2588 99.8124 69.0948 99.8865C66.8234 99.8865 64.0841 99.2384 60.8955 97.9236C57.6964 96.615 54.7565 95.9669 52.0683 95.9669C49.249 95.9669 46.2254 96.615 42.9912 97.9236C39.7521 99.2384 37.1427 99.9235 35.1476 99.9914C32.1135 100.121 29.0893 98.7816 26.0705 95.9669C24.1438 94.2817 21.7339 91.3929 18.8469 87.3004C15.7493 82.9302 13.2028 77.8625 11.2077 72.0849C9.07108 65.8443 8 59.8013 8 53.9508C8 47.2492 9.44412 41.4691 12.3367 36.6254C14.6099 32.7348 17.6342 29.6658 21.4193 27.4128C25.2044 25.1597 29.2942 24.0116 33.6986 23.9382C36.1085 23.9382 39.2689 24.6857 43.1962 26.1548C47.1124 27.6288 49.627 28.3763 50.7294 28.3763C51.5537 28.3763 54.3471 27.5023 59.0827 25.7597C63.5609 24.1437 67.3405 23.4746 70.4368 23.7382C78.8269 24.4172 85.1303 27.7337 89.3223 33.7089C81.8186 38.268 78.1067 44.6536 78.1806 52.8453C78.2483 59.226 80.5567 64.5357 85.0934 68.7516C87.1494 70.7084 89.4454 72.2207 92 73.2947C91.446 74.9058 90.8612 76.4489 90.2395 77.9304V77.9304ZM70.9969 2.00057C70.9969 7.00171 69.1749 11.6713 65.543 15.9934C61.1602 21.1315 55.859 24.1005 50.1102 23.632C50.0369 23.032 49.9945 22.4006 49.9945 21.737C49.9945 16.9359 52.0788 11.7978 55.7802 7.59669C57.6281 5.4696 59.9783 3.70095 62.8284 2.29006C65.6723 0.900229 68.3623 0.131621 70.8923 0C70.9662 0.668575 70.9969 1.33719 70.9969 2.0005V2.00057Z" fill="black"/>
</svg>
