<svg width="697" height="789" viewBox="0 0 697 789" fill="none" xmlns="http://www.w3.org/2000/svg">
<path d="M697 0L633.502 709.802L348.073 788.76L63.4312 709.913L0 0H697Z" fill="#264DE4"/>
<path d="M579.138 664.604L633.402 58.046H348.499V728.408L579.138 664.604Z" fill="#2965F1"/>
<path d="M145.416 321.342L153.236 408.409H348.501V321.342H145.416Z" fill="#EBEBEB"/>
<path d="M348.501 145.115H348.199H129.701L137.633 232.184H348.501V145.115Z" fill="#EBEBEB"/>
<path d="M348.5 638.054V547.467L348.118 547.569L250.939 521.385L244.727 451.945H197.506H157.135L169.359 588.654L348.099 638.165L348.5 638.054Z" fill="#EBEBEB"/>
<path d="M455.646 408.409L445.518 521.33L348.199 547.54V638.123L527.081 588.654L528.393 573.944L548.897 344.723L551.026 321.342L566.779 145.115H348.199V232.184H471.153L463.213 321.342H348.199V408.409H455.646Z" fill="white"/>
</svg>
