<svg width="100" height="100" viewBox="0 0 100 100" fill="none" xmlns="http://www.w3.org/2000/svg">
<path d="M93 1L85.1652 89.1898L49.9473 99L14.8265 89.2036L7 1H93Z" fill="#264DE4"/>
<path d="M78.3337 83.1002L85 8H50V91L78.3337 83.1002Z" fill="#2965F1"/>
<path d="M25 41L25.9627 52H50V41H25Z" fill="#EBEBEB"/>
<path d="M50 19H49.9641H24L24.9426 29H50V19Z" fill="#EBEBEB"/>
<path d="M50 79.9863V68.7979L49.9541 68.8105L38.2742 65.5765L37.5276 57H31.8522H27L28.4692 73.8849L49.9518 80L50 79.9863Z" fill="#EBEBEB"/>
<path d="M63.2723 51.5774L62.0213 65.5492L50 68.7921V80L72.0963 73.8792L72.2584 72.0591L74.7911 43.6975L75.0541 40.8046L77 19H50V29.7731H65.1878L64.2071 40.8046H50V51.5774H63.2723Z" fill="white"/>
</svg>
