<svg xmlns="http://www.w3.org/2000/svg" xmlns:xlink="http://www.w3.org/1999/xlink" viewBox="0 0 255.06 165.06"><defs><style>.cls-1,.cls-11{fill:none;}.cls-2{fill:#394d54;}.cls-3{clip-path:url(#clip-path);}.cls-4{fill:#00acd3;}.cls-5{fill:#20c2ef;}.cls-11,.cls-6{stroke:#394d54;}.cls-6{stroke-width:1.56px;}.cls-7{fill:#17b5eb;}.cls-8{fill-opacity:0.17;}.cls-9{fill:#d4edf1;}.cls-10{fill-opacity:0.09;}.cls-11{stroke-linecap:round;stroke-width:3.4px;}</style><clipPath id="clip-path"><path class="cls-1" d="M76,21.06v46H54v23H35.58c-.08.66-.14,1.33-.21,2a61.73,61.73,0,0,0,6.07,34l1.68,3a48.46,48.46,0,0,0,3.44,5.18c1.25,1.67,1.69,2.59,2.47,3.69,13.29,14.94,33.1,22.13,56,22.13,50.65,0,93.63-22.44,112.66-72.85C231.15,88.6,244.1,85.14,250,73.62c-9.4-5.43-21.48-3.69-28.44-.19L240,21.06l-72,46H145v-46Z"/></clipPath></defs><title>Docker_Logo</title><g id="Layer_2" data-name="Layer 2"><g id="svg2"><path id="path14" class="cls-2" d="M147.49,64.79h22.86V88.16h11.57A50.2,50.2,0,0,0,197.8,85.5,40.69,40.69,0,0,0,205.53,82a28.64,28.64,0,0,1-5.36-14.78c-.66-7.14.78-16.42,5.6-22l2.41-2.78L211,44.75c7.21,5.79,13.28,13.89,14.35,23.11,8.68-2.55,18.87-2,26.53,2.47l3.14,1.81-1.65,3.23c-6.48,12.63-20,16.55-33.24,15.85-19.8,49.31-62.9,72.66-115.16,72.66-27,0-51.77-10.1-65.87-34-.83-1.49-1.54-3-2.29-4.57a66.37,66.37,0,0,1-5.28-33.64l.33-3.46H51.45V64.79H74.32V41.92h45.73V19.06h27.44V64.79"/><g class="cls-3"><g id="g16"><g id="g18"><g id="g20"><path id="path22" class="cls-4" d="M123.86,0h19.82V19.82H123.86Z"/><path id="path24" class="cls-5" d="M123.86,22.87h19.82V42.68H123.86Z"/><path id="path26" class="cls-6" d="M126.29,18.17V1.65m3,16.52V1.65m3,16.52V1.65m3,16.52V1.65m3,16.52V1.65m3,16.52V1.65"/><g id="use28"><path class="cls-6" d="M126.29,41V24.52m3,16.51V24.52m3,16.51V24.52m3,16.51V24.52m3,16.51V24.52m3,16.51V24.52"/></g></g><g id="use30"><path class="cls-4" d="M146.73,42.68h19.81V22.87H146.73Z"/><path class="cls-5" d="M146.73,19.82h19.81V0H146.73Z"/><path class="cls-6" d="M149.16,24.52V41m3-16.51V41m3-16.51V41m3-16.51V41m3-16.51V41m3-16.51V41"/><path class="cls-6" d="M149.16,1.65V18.17m3-16.52V18.17m3-16.52V18.17m3-16.52V18.17m3-16.52V18.17m3-16.52V18.17"/></g></g><g id="use32"><path class="cls-4" d="M32.4,45.73H52.21V65.55H32.4Z"/><path class="cls-5" d="M32.4,68.6H52.21V88.42H32.4Z"/><path class="cls-6" d="M34.83,63.9V47.38m3,16.52V47.38m3,16.52V47.38m3,16.52V47.38m3,16.52V47.38m3,16.52V47.38"/><path class="cls-6" d="M34.83,86.76V70.25m3,16.51V70.25m3,16.51V70.25m3,16.51V70.25m3,16.51V70.25m3,16.51V70.25"/><path class="cls-4" d="M55.26,88.42H75.08V68.6H55.26Z"/><path class="cls-5" d="M55.26,65.55H75.08V45.73H55.26Z"/><path class="cls-6" d="M57.69,70.25V86.77m3-16.52V86.77m3-16.52V86.77m3-16.52V86.77m3-16.52V86.77m3-16.52V86.77"/><path class="cls-6" d="M57.69,47.38V63.9m3-16.52V63.9m3-16.52V63.9m3-16.52V63.9m3-16.52V63.9m3-16.52V63.9"/></g><g id="use34"><path class="cls-4" d="M78.13,45.73H97.94V65.55H78.13Z"/><path class="cls-5" d="M78.13,68.6H97.94V88.42H78.13Z"/><path class="cls-6" d="M80.56,63.9V47.38m3,16.52V47.38m3,16.52V47.38m3,16.52V47.38m3,16.52V47.38m3,16.52V47.38"/><path class="cls-6" d="M80.56,86.76V70.25m3,16.51V70.25m3,16.51V70.25m3,16.51V70.25m3,16.51V70.25m3,16.51V70.25"/><path class="cls-4" d="M101,88.42h19.82V68.6H101Z"/><path class="cls-5" d="M101,65.55h19.82V45.73H101Z"/><path class="cls-6" d="M103.43,70.25V86.77m3-16.52V86.77m3-16.52V86.77m3-16.52V86.77m3-16.52V86.77m3-16.52V86.77"/><path class="cls-6" d="M103.43,47.38V63.9m3-16.52V63.9m3-16.52V63.9m3-16.52V63.9m3-16.52V63.9m3-16.52V63.9"/></g><g id="use36"><path class="cls-4" d="M123.86,45.73h19.82V65.55H123.86Z"/><path class="cls-5" d="M123.86,68.6h19.82V88.42H123.86Z"/><path class="cls-6" d="M126.29,63.9V47.38m3,16.52V47.38m3,16.52V47.38m3,16.52V47.38m3,16.52V47.38m3,16.52V47.38"/><path class="cls-6" d="M126.29,86.76V70.25m3,16.51V70.25m3,16.51V70.25m3,16.51V70.25m3,16.51V70.25m3,16.51V70.25"/><path class="cls-4" d="M146.73,88.42h19.81V68.6H146.73Z"/><path class="cls-5" d="M146.73,65.55h19.81V45.73H146.73Z"/><path class="cls-6" d="M149.16,70.25V86.77m3-16.52V86.77m3-16.52V86.77m3-16.52V86.77m3-16.52V86.77m3-16.52V86.77"/><path class="cls-6" d="M149.16,47.38V63.9m3-16.52V63.9m3-16.52V63.9m3-16.52V63.9m3-16.52V63.9m3-16.52V63.9"/></g></g></g><g class="cls-3"><path id="path38" class="cls-7" d="M221.57,73.44c1.53-11.92-7.38-21.28-12.91-25.72-6.38,7.36-7.37,26.67,2.63,34.8C205.71,87.48,194,92,181.92,92H34c-1.17,12.57,0,73.09,0,73.09H251l-1-91.43c-9.4-5.42-21.48-3.69-28.44-.19"/></g><g class="cls-3"><path id="path40" class="cls-8" d="M34,108.06v57H251v-57"/></g><g class="cls-3"><path id="path42" class="cls-9" d="M111.24,160c-13.54-6.43-21-15.16-25.11-24.7L45,137.06l21,28L111.24,160"/></g><g class="cls-3"><path id="path44" class="cls-10" d="M222.5,73v0c-20.86,26.89-50.78,50.38-82.91,62.72C110.94,146.75,86,146.8,68.72,138c-1.86-1.05-3.68-2.21-5.5-3.31C50.58,125.82,43.46,111.21,44.06,92H34v73.1H251v-96H226Z"/></g><path id="path46" class="cls-11" d="M45.62,136.09c14.17.77,29.29.91,42.47-3.22"/><path id="path48" class="cls-9" d="M102.17,126a5.47,5.47,0,1,1-5.47-5.47A5.47,5.47,0,0,1,102.17,126Z"/><path id="path50" class="cls-2" d="M98.12,122.36a1.6,1.6,0,0,0,.8,3,1.59,1.59,0,0,0,1.4-.83,4,4,0,0,1,.3,1.51,3.9,3.9,0,1,1-2.5-3.66Z"/><path id="path52" class="cls-2" d="M0,109.22H254.33c-5.54-1.41-17.52-3.3-15.55-10.56-10.07,11.65-34.35,8.17-40.48,2.43-6.82,9.9-46.55,6.13-49.32-1.58-8.56,10-35.07,10-43.63,0-2.77,7.71-42.5,11.48-49.32,1.58-6.13,5.74-30.41,9.22-40.48-2.43,2,7.26-10,9.15-15.55,10.56"/></g></g></svg>