<svg width="100" height="100" viewBox="0 0 100 100" fill="none" xmlns="http://www.w3.org/2000/svg">
<path fill-rule="evenodd" clip-rule="evenodd" d="M57.6098 39.8633H66.5414V48.9937H71.0572C73.1431 48.9937 75.2879 48.6222 77.2628 47.9531C78.2335 47.6239 79.3225 47.1661 80.2799 46.5899C79.019 44.9439 78.3753 42.8655 78.1862 40.8167C77.9284 38.0298 78.4909 34.4026 80.3767 32.2214L81.3158 31.1355L82.4345 32.0351C85.2511 34.2979 87.6202 37.4602 88.0377 41.0652C91.4294 40.0676 95.4116 40.3035 98.4009 42.0288L99.6274 42.7366L98.9822 43.9967C96.4538 48.9308 91.1677 50.4597 85.9999 50.189C78.2671 69.4494 61.4315 78.5678 41.0187 78.5678C30.4723 78.5678 20.797 74.6254 15.2871 65.2688L15.1968 65.1164L14.3941 63.4829C12.5317 59.3643 11.913 54.8524 12.3325 50.344L12.4587 48.9937H20.0966V39.8633H29.0279V30.9316H46.8915V22H57.6098V39.8633Z" fill="#364548"/>
<path fill-rule="evenodd" clip-rule="evenodd" d="M86.5468 43.2409C87.1456 38.5864 83.6626 34.9307 81.5025 33.1948C79.0132 36.0728 78.6265 43.6155 82.5318 46.7911C80.3522 48.7269 75.7598 50.4816 71.0573 50.4816H13.8157C13.3587 55.3903 14.2204 59.9108 16.1887 63.7798L16.8398 64.9711C17.2521 65.6704 17.7026 66.3464 18.1893 66.9961C20.5428 67.1472 22.7126 67.1992 24.6977 67.1554H24.6984C28.5994 67.0695 31.7825 66.6086 34.1949 65.7727C34.3654 65.7196 34.5499 65.735 34.7093 65.8155C34.8688 65.896 34.9906 66.0354 35.0491 66.2042C35.1076 66.3729 35.0982 66.5578 35.0228 66.7198C34.9474 66.8817 34.812 67.0079 34.6453 67.0718C34.3242 67.1835 33.9898 67.2874 33.6445 67.3863H33.6433C31.7438 67.9288 29.7068 68.2936 27.0788 68.4558C27.235 68.4585 26.9163 68.4792 26.9155 68.4792C26.8261 68.485 26.7136 68.4979 26.6237 68.5026C25.5894 68.5608 24.4731 68.5729 23.3317 68.5729C22.0833 68.5729 20.8541 68.5495 19.4795 68.4792L19.4444 68.5026C24.2137 73.8633 31.6712 77.0784 41.0192 77.0784C60.8027 77.0784 77.5832 68.3085 85.0141 48.6199C90.2857 49.1609 95.3523 47.8164 97.6569 43.3174C93.986 41.1992 89.2651 41.8745 86.5468 43.2409" fill="#22A0C8"/>
<path fill-rule="evenodd" clip-rule="evenodd" d="M86.5469 43.2409C87.1457 38.5864 83.6627 34.9307 81.5026 33.1948C79.0133 36.0728 78.6266 43.6155 82.5319 46.7911C80.3523 48.7269 75.7599 50.4816 71.0574 50.4816H17.2055C16.9719 57.9992 19.7616 63.7056 24.6973 67.1554H24.6985C28.5995 67.0695 31.7826 66.6086 34.195 65.7727C34.3655 65.7196 34.55 65.735 34.7094 65.8155C34.8688 65.896 34.9907 66.0354 35.0492 66.2042C35.1077 66.3729 35.0983 66.5578 35.0229 66.7198C34.9475 66.8817 34.8121 67.0079 34.6453 67.0718C34.3242 67.1835 33.9899 67.2874 33.6446 67.3863H33.6434C31.7439 67.9288 29.5319 68.3405 26.9039 68.5026C26.9031 68.5026 26.8402 68.4421 26.8394 68.4421C33.5723 71.8958 43.3348 71.8833 54.5276 67.5839C67.0779 62.7623 78.7566 53.5767 86.9051 43.0706C86.7825 43.126 86.6629 43.1827 86.5469 43.2409" fill="#37B1D9"/>
<path fill-rule="evenodd" clip-rule="evenodd" d="M13.9229 56.4458C14.2783 59.0754 15.0478 61.5374 16.1884 63.7798L16.8395 64.9712C17.2517 65.6705 17.7023 66.3465 18.1891 66.9961C20.5429 67.1473 22.7127 67.1992 24.6982 67.1555C28.5991 67.0695 31.7822 66.6086 34.1946 65.7727C34.3651 65.7197 34.5496 65.735 34.7091 65.8156C34.8685 65.8961 34.9903 66.0355 35.0488 66.2042C35.1073 66.373 35.0979 66.5579 35.0225 66.7198C34.9472 66.8817 34.8118 67.008 34.645 67.0719C34.3239 67.1836 33.9895 67.2875 33.6442 67.3863H33.6431C31.7435 67.9289 29.5432 68.3171 26.9152 68.4796C26.825 68.4851 26.6676 68.4863 26.5766 68.4914C25.543 68.5492 24.438 68.5847 23.2963 68.5847C22.0483 68.5847 20.7718 68.5609 19.398 68.491C24.1673 73.8517 31.6709 77.0785 41.0189 77.0785C57.9556 77.0785 72.6909 70.6499 81.2433 56.4458H13.9229Z" fill="#1B81A5"/>
<path fill-rule="evenodd" clip-rule="evenodd" d="M17.7207 56.4458C18.7332 61.0628 21.1663 64.6872 24.6985 67.1555C28.5995 67.0695 31.7826 66.6086 34.195 65.7727C34.3655 65.7197 34.55 65.735 34.7094 65.8156C34.8688 65.8961 34.9907 66.0355 35.0492 66.2042C35.1077 66.373 35.0983 66.5579 35.0229 66.7198C34.9475 66.8817 34.8121 67.008 34.6453 67.0719C34.3243 67.1836 33.9899 67.2875 33.6446 67.3863H33.6434C31.7439 67.9289 29.4971 68.3171 26.8687 68.4796C33.6012 71.9326 43.3356 71.883 54.5277 67.584C61.2984 64.9825 67.8149 61.11 73.6612 56.4458H17.7207Z" fill="#1D91B4"/>
<path fill-rule="evenodd" clip-rule="evenodd" d="M21.585 41.3516H29.326V49.0926H21.585V41.3516ZM22.2299 41.9968H22.8408V48.4477H22.2299V41.9968ZM23.3782 41.9968H24.0138V48.4477H23.3786V41.9968H23.3782ZM24.5508 41.9968H25.1864V48.4477H24.5508V41.9968ZM25.7242 41.9968H26.3594V48.4477H25.7242V41.9968ZM26.8972 41.9968H27.5324V48.4477H26.8972V41.9968ZM28.0698 41.9968H28.6811V48.4477H28.0698V41.9968ZM30.5166 32.4199H38.258V40.1606H30.5162V32.4199H30.5166ZM31.1619 33.0652H31.7724V39.5157H31.1619V33.0652ZM32.3103 33.0652H32.9454V39.5157H32.3107V33.0652H32.3103ZM33.4829 33.0652H34.118V39.5157H33.4829V33.0652ZM34.6559 33.0652H35.291V39.5157H34.6559V33.0652ZM35.8289 33.0652H36.4644V39.5157H35.8289V33.0652ZM37.0015 33.0652H37.6132V39.5157H37.0015V33.0652Z" fill="#23A3C2"/>
<path fill-rule="evenodd" clip-rule="evenodd" d="M30.5165 41.3521H38.258V49.0931H30.5161V41.3521H30.5165ZM31.1618 41.9973H31.7723V48.4482H31.1618V41.9973ZM32.3102 41.9973H32.9453V48.4482H32.3106V41.9973H32.3102ZM33.4828 41.9973H34.1179V48.4482H33.4828V41.9973ZM34.6558 41.9973H35.2909V48.4482H34.6558V41.9973ZM35.8288 41.9973H36.4643V48.4482H35.8288V41.9973ZM37.0014 41.9973H37.6131V48.4482H37.0014V41.9973Z" fill="#34BBDE"/>
<path fill-rule="evenodd" clip-rule="evenodd" d="M39.4487 41.3521H47.1898V49.0931H39.4487V41.3521ZM40.0936 41.9973H40.7041V48.4482H40.0936V41.9973ZM41.242 41.9973H41.8771V48.4482H41.242V41.9973ZM42.415 41.9973H43.0501V48.4482H42.415V41.9973ZM43.588 41.9973H44.2231V48.4482H43.588V41.9973ZM44.7606 41.9973H45.3965V48.4482H44.7606V41.9973ZM45.9336 41.9973H46.5445V48.4482H45.9336V41.9973V41.9973Z" fill="#23A3C2"/>
<path fill-rule="evenodd" clip-rule="evenodd" d="M39.4487 32.4199H47.1898V40.1606H39.4487V32.4199ZM40.0936 33.0652H40.7041V39.5157H40.0936V33.0652ZM41.242 33.0652H41.8771V39.5157H41.242V33.0652ZM42.415 33.0652H43.0501V39.5157H42.415V33.0652ZM43.588 33.0652H44.2231V39.5157H43.588V33.0652ZM44.7606 33.0652H45.3965V39.5157H44.7606V33.0652ZM45.9336 33.0652H46.5445V39.5157H45.9336V33.0652V33.0652ZM48.3804 41.3516H56.1214V49.0926H48.3804V41.3516ZM49.0256 41.9968H49.6362V48.4477H49.0256V41.9968ZM50.174 41.9968H50.8092V48.4477H50.174V41.9968ZM51.3466 41.9968H51.9818V48.4477H51.3466V41.9968ZM52.5196 41.9968H53.1551V48.4477H52.5196V41.9968ZM53.6926 41.9968H54.3281V48.4477H53.6926V41.9968ZM54.8656 41.9968H55.4765V48.4477H54.8656V41.9968Z" fill="#34BBDE"/>
<path fill-rule="evenodd" clip-rule="evenodd" d="M48.3804 32.4199H56.1214V40.1606H48.3804V32.4199ZM49.0257 33.0652H49.6362V39.5157H49.0257V33.0652ZM50.174 33.0652H50.8092V39.5157H50.174V33.0652ZM51.3466 33.0652H51.9818V39.5157H51.3466V33.0652ZM52.5196 33.0652H53.1552V39.5157H52.5196V33.0652ZM53.6926 33.0652H54.3282V39.5157H53.6926V33.0652ZM54.8656 33.0652H55.4765V39.5157H54.8656V33.0652Z" fill="#23A3C2"/>
<path fill-rule="evenodd" clip-rule="evenodd" d="M48.3804 23.4883H56.1214V31.2301H48.3804V23.4883ZM49.0257 24.1332H49.6362V30.5844H49.0257V24.1328V24.1332ZM50.174 24.1332H50.8092V30.5844H50.174V24.1328V24.1332ZM51.3466 24.1332H51.9818V30.5844H51.3466V24.1328V24.1332ZM52.5196 24.1332H53.1552V30.5844H52.5196V24.1328V24.1332ZM53.6926 24.1332H54.3282V30.5844H53.6926V24.1328V24.1332ZM54.8656 24.1332H55.4765V30.5844H54.8656V24.1328V24.1332Z" fill="#34BBDE"/>
<path fill-rule="evenodd" clip-rule="evenodd" d="M57.3115 41.3521H65.0526V49.0931H57.3115V41.3521ZM57.956 41.9973H58.5673V48.4482H57.9564V41.9973H57.956ZM59.1044 41.9973H59.7399V48.4482H59.1048V41.9973H59.1044ZM60.2778 41.9973H60.9133V48.4482H60.2778V41.9973ZM61.4504 41.9973H62.0859V48.4482H61.4504V41.9973ZM62.6238 41.9973H63.2589V48.4482H62.6238V41.9973ZM63.7964 41.9973H64.4073V48.4482H63.7964V41.9973Z" fill="#23A3C2"/>
<path fill-rule="evenodd" clip-rule="evenodd" d="M37.7734 61.6437C38.0563 61.64 38.3371 61.6924 38.5995 61.7981C38.862 61.9038 39.1008 62.0605 39.3022 62.2592C39.5035 62.458 39.6634 62.6947 39.7725 62.9557C39.8816 63.2168 39.9378 63.4969 39.9377 63.7798C39.9376 64.0627 39.8814 64.3428 39.7722 64.6038C39.663 64.8648 39.503 65.1015 39.3016 65.3001C39.1002 65.4988 38.8613 65.6554 38.5988 65.761C38.3363 65.8666 38.0555 65.9189 37.7726 65.915C37.2112 65.9073 36.6754 65.6789 36.2811 65.2791C35.8869 64.8794 35.6659 64.3405 35.666 63.779C35.6661 63.2175 35.8873 62.6787 36.2817 62.2791C36.6761 61.8795 37.212 61.6512 37.7734 61.6437Z" fill="#D3ECEC"/>
<path fill-rule="evenodd" clip-rule="evenodd" d="M37.7733 62.249C37.9686 62.249 38.1549 62.2857 38.3268 62.3525C38.2082 62.4214 38.1156 62.5274 38.0632 62.6541C38.0109 62.7809 38.0018 62.9213 38.0372 63.0538C38.0727 63.1863 38.1508 63.3034 38.2595 63.387C38.3682 63.4706 38.5014 63.5162 38.6385 63.5165C38.8748 63.5165 39.0799 63.3857 39.1861 63.1919C39.3119 63.495 39.3369 63.8304 39.2574 64.1487C39.1779 64.4671 38.9982 64.7514 38.7447 64.9597C38.4912 65.168 38.1774 65.2893 37.8497 65.3056C37.522 65.3219 37.1978 65.2323 36.9249 65.0502C36.652 64.8681 36.4449 64.603 36.3342 64.2941C36.2235 63.9852 36.2151 63.6489 36.3102 63.3349C36.4053 63.0209 36.5989 62.7458 36.8624 62.5503C37.1258 62.3547 37.4452 62.2491 37.7733 62.249V62.249ZM0 57.2176H99.342C97.1793 56.6692 92.4986 55.9278 93.2704 53.0928C89.337 57.6441 79.8519 56.286 77.4579 54.0419C74.7924 57.9082 59.2735 56.4383 58.1912 53.4264C54.8491 57.3484 44.4937 57.3484 41.1517 53.4264C40.0685 56.4383 24.5501 57.9082 21.8842 54.0416C19.4905 56.286 10.0058 57.6441 6.07239 53.0932C6.84423 55.9278 2.16358 56.6692 0 57.218" fill="#364548"/>
<path fill-rule="evenodd" clip-rule="evenodd" d="M43.4502 77.0329C38.1614 74.5232 35.2588 71.1113 33.6436 67.3872C31.6788 67.9477 29.3176 68.3063 26.5736 68.4602C25.54 68.518 24.4526 68.5477 23.312 68.5477C21.9965 68.5477 20.6102 68.5086 19.1548 68.4317C24.005 73.2791 29.9715 77.011 41.0194 77.079C41.835 77.079 42.6444 77.0633 43.4502 77.0329" fill="#BDD9D7"/>
<path fill-rule="evenodd" clip-rule="evenodd" d="M35.6076 70.8236C34.876 69.8303 34.1663 68.5819 33.6444 67.3862C31.6797 67.9475 29.3177 68.3061 26.5732 68.4604C28.4583 69.4834 31.1539 70.4314 35.608 70.8236" fill="#D3ECEC"/>
</svg>
