<svg width="100" height="100" viewBox="0 0 100 100" fill="none" xmlns="http://www.w3.org/2000/svg">
<path d="M33.4866 99.1721C42.6273 99.1721 50.0459 91.7742 50.0459 82.6588V66.1455H33.4866C24.3458 66.1455 16.9272 73.5434 16.9272 82.6588C16.9272 91.7742 24.3458 99.1721 33.4866 99.1721Z" fill="#0ACF83"/>
<path d="M16.9272 49.632C16.9272 40.5166 24.3458 33.1187 33.4866 33.1187H50.0459V66.1453H33.4866C24.3458 66.1453 16.9272 58.7474 16.9272 49.632Z" fill="#A259FF"/>
<path d="M16.9272 16.5593C16.9272 7.41858 24.3458 0 33.4866 0H50.0459V33.1187H33.4866C24.3458 33.1187 16.9272 25.7001 16.9272 16.5593Z" fill="#F24E1E"/>
<path d="M50.0459 0H66.6052C75.746 0 83.1646 7.41858 83.1646 16.5593C83.1646 25.7001 75.746 33.1187 66.6052 33.1187H50.0459V0Z" fill="#FF7262"/>
<path d="M83.1646 49.632C83.1646 58.7474 75.746 66.1453 66.6052 66.1453C57.4645 66.1453 50.0459 58.7474 50.0459 49.632C50.0459 40.5166 57.4645 33.1187 66.6052 33.1187C75.746 33.1187 83.1646 40.5166 83.1646 49.632Z" fill="#1ABCFE"/>
</svg>
