<svg width="100" height="100" viewBox="0 0 100 100" fill="none" xmlns="http://www.w3.org/2000/svg">
<path fill-rule="evenodd" clip-rule="evenodd" d="M50.2086 3C38.762 2.9962 27.6877 7.06687 18.9685 14.4832C10.2493 21.8995 4.45461 32.1773 2.62185 43.4762C0.789093 54.7752 3.03796 66.3577 8.96582 76.1498C14.8937 85.942 24.1134 93.3045 34.9744 96.9191C37.3685 97.366 38.2622 95.8737 38.2622 94.5969C38.2622 93.4477 38.2223 89.6571 38.1984 85.6271C24.7917 88.5399 21.9667 79.9452 21.9667 79.9452C19.7721 74.359 16.6119 72.8907 16.6119 72.8907C12.2388 69.8981 16.9391 69.9619 16.9391 69.9619C21.7831 70.3051 24.3288 74.9256 24.3288 74.9256C28.6301 82.2914 35.6048 80.1686 38.35 78.9157C38.7889 75.8035 40.0339 73.6807 41.4144 72.4757C30.7449 71.2707 19.4529 67.137 19.4529 48.6707C19.3813 43.8745 21.162 39.2353 24.4246 35.7189C23.9218 34.5059 22.2699 29.606 24.8874 22.9505C24.8874 22.9505 28.9334 21.6577 38.1425 27.8903C46.0443 25.7303 54.3809 25.7303 62.2827 27.8903C71.444 21.6897 75.5219 22.9505 75.5219 22.9505C78.1394 29.5901 76.4954 34.4899 75.9927 35.7189C79.2463 39.2333 81.021 43.866 80.9484 48.6548C80.9484 67.1689 69.6803 71.2388 58.947 72.4358C60.6707 73.9281 62.2109 76.8648 62.2109 81.3577C62.2109 87.8057 62.163 93.0008 62.163 94.5809C62.163 95.8657 63.0248 97.366 65.4668 96.8952C76.312 93.2669 85.5135 85.9001 91.4268 76.1115C97.3401 66.3229 99.5797 54.7505 97.7454 43.4625C95.9111 32.1745 90.1224 21.9067 81.4139 14.4942C72.7054 7.08165 61.6447 3.00754 50.2086 3V3Z" fill="white"/>
</svg>
