<svg width="100" height="100" viewBox="0 0 100 100" fill="none" xmlns="http://www.w3.org/2000/svg">
<path d="M85.2 1C90.0596 1 94 4.9494 94 9.82V90.18C94 95.0506 90.0596 99 85.2 99H14.8C9.94044 99 6 95.0506 6 90.18V9.82C6 4.9494 9.94044 1 14.8 1H85.2ZM28 64.7V84.3L39 74.5L28 64.7ZM37.7778 15.7H28V58.1977L34.9068 55.0617L34.987 55.026C36.0142 54.5727 46.6147 50 56.1111 50C61.0758 50 62.1746 52.7477 62.2222 55.0348V84.3H72.0003L72.0004 54.797C71.9941 53.8223 71.7734 48.6648 67.743 44.5794C65.7728 42.5814 62.155 40.2 56.1111 40.2C49.483 40.2 42.6593 41.9285 37.7778 43.521V15.7ZM62.2222 15.7L62.0864 16.3654C60.9489 21.6791 58.5778 26.774 54.8889 31.625H64.6667L65.1017 31.1217C69.237 26.2465 71.362 21.0809 72 15.7H62.2222Z" fill="url(#paint0_radial)"/>
<path d="M85.2 1C90.0596 1 94 4.9494 94 9.82V90.18C94 95.0506 90.0596 99 85.2 99H14.8C9.94044 99 6 95.0506 6 90.18V9.82C6 4.9494 9.94044 1 14.8 1H85.2ZM28 64.7V84.3L39 74.5L28 64.7ZM37.7778 15.7H28V58.1977L34.9068 55.0617L34.987 55.026C36.0142 54.5727 46.6147 50 56.1111 50C61.0758 50 62.1746 52.7477 62.2222 55.0348V84.3H72.0003L72.0004 54.797C71.9941 53.8223 71.7734 48.6648 67.743 44.5794C65.7728 42.5814 62.155 40.2 56.1111 40.2C49.483 40.2 42.6593 41.9285 37.7778 43.521V15.7ZM62.2222 15.7L62.0864 16.3654C60.9489 21.6791 58.5778 26.774 54.8889 31.625H64.6667L65.1017 31.1217C69.237 26.2465 71.362 21.0809 72 15.7H62.2222Z" fill="url(#paint1_linear)"/>
<defs>
<radialGradient id="paint0_radial" cx="0" cy="0" r="1" gradientUnits="userSpaceOnUse" gradientTransform="translate(50 45.1613) scale(65.3919 65.5405)">
<stop stop-color="#844DB8"/>
<stop offset="1" stop-color="#5B16A3"/>
</radialGradient>
<linearGradient id="paint1_linear" x1="14.8554" y1="93.4875" x2="99.4035" y2="9.13028" gradientUnits="userSpaceOnUse">
<stop stop-color="#7673C0" stop-opacity="0.5"/>
<stop offset="1" stop-color="#7673C0" stop-opacity="0"/>
</linearGradient>
</defs>
</svg>
