<svg id="图层_1" data-name="图层 1" xmlns="http://www.w3.org/2000/svg" viewBox="0 0 579.67 476.89"><defs><style>.cls-1{fill:#24acd3;}.cls-2{fill:#54565a;}</style></defs><title>htc-vive-logo</title><path class="cls-1" d="M425.37,180.44l-91-157.56a16,16,0,0,0-13.86-8H288.84a16,16,0,0,0-13.86,8L184,180.45a16,16,0,0,0,0,16l15.81,27.38a16,16,0,0,0,13.86,8h182a16,16,0,0,0,13.86-8l15.82-27.38a16,16,0,0,0,0-16m-77.3,15.22a144.91,144.91,0,0,1-86.79,0c-16-5-25.94-21.3-22.48-37.75a143.86,143.86,0,0,1,43.52-76.39,33,33,0,0,1,44.68,0,144,144,0,0,1,43.54,76.39c3.45,16.44-6.44,32.69-22.47,37.76" transform="translate(-20.87 -14.88)"/><path class="cls-2" d="M430.9,380.82,376,488.9a5.19,5.19,0,0,1-4.64,2.83H353.19a5.26,5.26,0,0,1-4.64-2.83L293.63,380.82a6,6,0,0,1,.14-5.71L299.63,365a6.4,6.4,0,0,1,5.52-3.19h5.33a3.61,3.61,0,0,1,3.27,2l46.17,91.84a2.62,2.62,0,0,0,4.68,0l46.15-91.84a3.63,3.63,0,0,1,3.31-2h5.29a6.39,6.39,0,0,1,5.52,3.19l5.88,10.17a5.93,5.93,0,0,1,.15,5.69" transform="translate(-20.87 -14.88)"/><path class="cls-2" d="M158.8,380.82l-55,108.08a5.2,5.2,0,0,1-4.65,2.83H81.09a5.27,5.27,0,0,1-4.65-2.83L21.53,380.82a6,6,0,0,1,.13-5.71L27.54,365A6.32,6.32,0,0,1,33,361.77h5.35a3.61,3.61,0,0,1,3.26,2l46.17,91.84a2.62,2.62,0,0,0,4.69,0l46.15-91.84a3.62,3.62,0,0,1,3.29-2h5.32a6.32,6.32,0,0,1,5.49,3.18l5.9,10.18a6,6,0,0,1,.15,5.69" transform="translate(-20.87 -14.88)"/><path class="cls-2" d="M237.48,363.31a5.28,5.28,0,0,0-3.72-1.54h-8.22A6.33,6.33,0,0,0,220,365l-5.86,10.17a6.06,6.06,0,0,0-.8,3V486.47a5.26,5.26,0,0,0,5.27,5.26h15.16a5.22,5.22,0,0,0,5.23-5.21V367.06a5.28,5.28,0,0,0-1.56-3.75" transform="translate(-20.87 -14.88)"/><path class="cls-2" d="M492.17,365a6.33,6.33,0,0,1,5.5-3.18h78.67a6.26,6.26,0,0,1,5.4,3.11l5.54,9.53a9,9,0,0,1,1.2,4.49v2.37a3.59,3.59,0,0,1-3.58,3.57H513.18a2.63,2.63,0,0,0-2.62,2.63v24.87a2.61,2.61,0,0,0,2.61,2.62h48.61a4.34,4.34,0,0,1,4.28,4.32v14.29a4.34,4.34,0,0,1-4.32,4.33H513.17a2.6,2.6,0,0,0-2.61,2.61v25.55a2.61,2.61,0,0,0,2.61,2.62H584.9a3.56,3.56,0,0,1,3.58,3.54v2.38a9.14,9.14,0,0,1-1.2,4.51l-5.54,9.55a6.25,6.25,0,0,1-5.4,3.11H497.67a6.33,6.33,0,0,1-5.5-3.18l-5.48-9.45a8.94,8.94,0,0,1-1.21-4.51V378.88a9,9,0,0,1,1.2-4.49Z" transform="translate(-20.87 -14.88)"/><path class="cls-2" d="M589,361.77h4.67v.74h-1.88v4.63h-.87v-4.63H589Zm5.43,0h1.2l1.82,4.21h0l1.82-4.21h1.2v5.37h-.87l0-4.16h0l-1.82,4.16h-.73L595.33,363h-.05l.05,4.16h-.88Z" transform="translate(-20.87 -14.88)"/></svg>