<svg width="697" height="789" viewBox="0 0 697 789" fill="none" xmlns="http://www.w3.org/2000/svg">
<path d="M697 0H348.457H0L65.3302 708.476L348.457 788.762L631.583 708.476L697 0Z" fill="#E6A329"/>
<path d="M348.457 57.7063V728.721L577.848 663.748L633.66 57.7063H348.457Z" fill="#F1BF22"/>
<path d="M530.949 144.654H178.252L153.677 409.911L154.197 408.267H453.85L444.072 520.477L348.457 547.989L251.456 520.045L245.659 452.13H157.571L170.118 587.873L348.457 638.485L526.882 587.873L551.456 321.492H233.458L237.525 232.727H458.177L461.465 283.598H550.331L530.949 144.654Z" fill="white"/>
<path d="M348.543 144.654H178.252L153.677 409.91L154.197 408.267H348.543V321.751H245.832L249.899 232.9H348.543V144.654ZM245.832 452.13H157.571L170.118 587.873L348.543 638.398V548.076L251.457 520.045L245.832 452.13Z" fill="#EBEBEB"/>
</svg>
