<svg width="100" height="100" viewBox="0 0 100 100" fill="none" xmlns="http://www.w3.org/2000/svg">
<path d="M93 1H49.4946H6L14.1546 89.0248L49.4946 99L84.8346 89.0248L93 1Z" fill="#E6A329"/>
<path d="M48 8V92L77.7594 83.8664L85 8H48Z" fill="#F1BF22"/>
<path d="M72.4223 19H28.089L25 52.3028L25.0654 52.0964H62.7311L61.5021 66.1842L49.4834 69.6383L37.2906 66.13L36.5619 57.6033H25.4895L27.0666 74.6457L49.4834 81L71.9111 74.6457L75 41.2018H35.0283L35.5395 30.0575H63.275L63.6883 36.4443H74.8586L72.4223 19Z" fill="white"/>
<path d="M51 19H28.2789L25 52.3085L25.0694 52.1022H51V41.2383H37.2958L37.8384 30.0811H51V19ZM37.2958 57.6101H25.5196L27.1936 74.6555L51 81V69.6582L38.0463 66.1383L37.2958 57.6101Z" fill="#EBEBEB"/>
</svg>
