<svg width="100" height="100" viewBox="0 0 100 100" fill="none" xmlns="http://www.w3.org/2000/svg">
<path d="M49.7552 77C49.4608 77.0005 49.1716 76.9235 48.9167 76.7768L46.2472 75.2022C45.8469 74.981 46.047 74.9033 46.1751 74.8574C46.5962 74.724 46.9994 74.54 47.3758 74.3093C47.4076 74.2942 47.4429 74.2877 47.478 74.2905C47.5131 74.2933 47.5469 74.3053 47.5759 74.3253L49.6251 75.5371C49.6628 75.5577 49.7051 75.5685 49.7482 75.5685C49.7912 75.5685 49.8335 75.5577 49.8712 75.5371L57.8658 70.9409C57.9033 70.9189 57.9343 70.8874 57.9558 70.8496C57.9772 70.8118 57.9883 70.769 57.9879 70.7257V61.5373C57.9882 61.4932 57.9769 61.4497 57.9551 61.4112C57.9333 61.3728 57.9019 61.3407 57.8638 61.3181L49.8732 56.7339C49.8358 56.7123 49.7934 56.701 49.7502 56.701C49.7069 56.701 49.6645 56.7123 49.6271 56.7339L41.6385 61.3181C41.6 61.34 41.5679 61.3716 41.5454 61.4097C41.523 61.4478 41.5109 61.4911 41.5105 61.5353V70.7237C41.5108 70.7671 41.5226 70.8097 41.5448 70.8471C41.5669 70.8846 41.5985 70.9156 41.6365 70.9369L43.8278 72.1966C45.0165 72.7945 45.7429 72.0929 45.7429 71.3993V62.3206C45.7429 62.2903 45.7489 62.2604 45.7606 62.2324C45.7723 62.2045 45.7894 62.1791 45.811 62.1578C45.8326 62.1365 45.8582 62.1197 45.8863 62.1083C45.9145 62.0969 45.9446 62.0911 45.975 62.0914H46.9896C47.0508 62.0914 47.1095 62.1155 47.153 62.1584C47.1965 62.2013 47.2212 62.2596 47.2217 62.3206V71.3934C47.2217 72.9739 46.3572 73.8788 44.8544 73.8788C44.3921 73.8788 44.0279 73.8788 43.0113 73.3805L40.9161 72.1846C40.6608 72.0369 40.4489 71.8248 40.3017 71.5698C40.1546 71.3148 40.0773 71.0258 40.0776 70.7316V61.5433C40.0774 61.2495 40.1548 60.9607 40.302 60.7061C40.4491 60.4514 40.6609 60.2397 40.9161 60.0923L48.9207 55.4901C49.1781 55.3499 49.4668 55.2764 49.7602 55.2764C50.0536 55.2764 50.3422 55.3499 50.5996 55.4901L58.6042 60.0923C58.8596 60.2396 59.0717 60.4512 59.2192 60.7059C59.3667 60.9605 59.4445 61.2493 59.4447 61.5433V70.7316C59.4444 71.0259 59.3667 71.3149 59.2192 71.5699C59.0717 71.8248 58.8596 72.0368 58.6042 72.1846L50.5996 76.7828C50.3425 76.9286 50.051 77.0036 49.7552 77V77Z" fill="#679E63"/>
<path d="M52.2261 70.6677C48.7281 70.6677 47.9937 69.0732 47.9937 67.7278C47.9937 67.6975 47.9997 67.6676 48.0114 67.6396C48.023 67.6117 48.0402 67.5863 48.0618 67.565C48.0833 67.5437 48.109 67.5269 48.1371 67.5155C48.1653 67.5041 48.1954 67.4983 48.2258 67.4986H49.2584C49.3145 67.4981 49.369 67.5181 49.4113 67.5548C49.4537 67.5915 49.4812 67.6424 49.4885 67.6979C49.6446 68.7443 50.1109 69.2745 52.2261 69.2745C53.909 69.2745 54.6274 68.8938 54.6274 68.0049C54.6274 67.4926 54.4273 67.1099 51.8058 66.8548C49.6186 66.6396 48.2658 66.1592 48.2658 64.4152C48.2658 62.8088 49.6246 61.8521 51.9059 61.8521C54.4653 61.8521 55.7341 62.737 55.8942 64.6424C55.8966 64.6742 55.8925 64.7061 55.8821 64.7363C55.8717 64.7664 55.8552 64.7941 55.8337 64.8176C55.8121 64.8411 55.7859 64.86 55.7567 64.8731C55.7276 64.8861 55.696 64.8931 55.664 64.8936H54.6274C54.575 64.893 54.5243 64.8748 54.4836 64.8418C54.4429 64.8089 54.4146 64.7632 54.4033 64.7122C54.1552 63.61 53.5488 63.2572 51.9079 63.2572C50.0688 63.2572 49.8547 63.895 49.8547 64.3734C49.8547 64.9534 50.1069 65.1208 52.5903 65.4497C55.0737 65.7785 56.2123 66.231 56.2123 67.949C56.2123 69.6671 54.7575 70.6677 52.2261 70.6677Z" fill="#679E63"/>
<path d="M63.7507 61.0313C63.7507 61.3348 63.6603 61.6315 63.491 61.8839C63.3217 62.1363 63.0811 62.333 62.7995 62.4492C62.5179 62.5653 62.2081 62.5957 61.9092 62.5365C61.6103 62.4773 61.3358 62.3311 61.1203 62.1165C60.9048 61.9019 60.758 61.6284 60.6986 61.3307C60.6391 61.033 60.6696 60.7244 60.7862 60.444C60.9029 60.1636 61.1004 59.9239 61.3538 59.7552C61.6072 59.5866 61.9051 59.4966 62.2098 59.4966C62.6182 59.4976 63.0095 59.6597 63.2982 59.9473C63.587 60.2348 63.7496 60.6246 63.7507 61.0313V61.0313ZM60.9191 61.0313C60.9179 61.2865 60.9929 61.5362 61.1345 61.7489C61.276 61.9615 61.4779 62.1275 61.7143 62.2257C61.9508 62.3239 62.2112 62.3499 62.4625 62.3004C62.7139 62.2509 62.9448 62.1281 63.1259 61.9477C63.3071 61.7673 63.4303 61.5373 63.48 61.287C63.5297 61.0367 63.5036 60.7773 63.405 60.5418C63.3064 60.3063 63.1398 60.1052 62.9263 59.9642C62.7128 59.8232 62.462 59.7485 62.2058 59.7497C61.8657 59.7513 61.54 59.8863 61.2991 60.1254C61.0583 60.3645 60.9217 60.6886 60.9191 61.0273V61.0313ZM61.6315 60.1742H62.2318C62.432 60.1742 62.8322 60.1742 62.8322 60.6307C62.8392 60.7285 62.8099 60.8254 62.7497 60.903C62.6895 60.9806 62.6028 61.0333 62.506 61.0512C62.7421 61.0692 62.7581 61.2226 62.7922 61.4498C62.8006 61.6046 62.8302 61.7575 62.8802 61.9043H62.512C62.512 61.8226 62.446 61.3841 62.446 61.3602C62.4239 61.2625 62.3899 61.2147 62.2679 61.2147H61.9657V61.9043H61.6315V60.1742ZM61.9577 60.9296H62.2318C62.2656 60.9338 62.2999 60.9305 62.3323 60.92C62.3646 60.9095 62.3943 60.892 62.4191 60.8688C62.4439 60.8456 62.4633 60.8172 62.4759 60.7857C62.4885 60.7542 62.494 60.7203 62.492 60.6865C62.492 60.4513 62.3279 60.4513 62.2398 60.4513H61.9617L61.9577 60.9296Z" fill="#679E63"/>
<path fill-rule="evenodd" clip-rule="evenodd" d="M24.9988 41.0477C24.9992 40.868 24.952 40.6915 24.8621 40.5358C24.7722 40.3801 24.6426 40.2507 24.4865 40.1607L16.0057 35.3035C15.8639 35.2208 15.7036 35.1749 15.5394 35.1699H15.4514C15.2873 35.1757 15.1272 35.2215 14.9851 35.3035L6.51229 40.1607C6.35648 40.251 6.22717 40.3805 6.13727 40.5361C6.04738 40.6917 6.00005 40.8681 6 41.0477L6.01801 54.1306C6.01737 54.2198 6.0408 54.3076 6.08586 54.3847C6.13092 54.4619 6.19595 54.5255 6.27416 54.5691C6.35056 54.616 6.43855 54.6408 6.5283 54.6408C6.61806 54.6408 6.70604 54.616 6.78245 54.5691L11.8193 51.701C11.9748 51.6108 12.104 51.4817 12.1938 51.3265C12.2837 51.1712 12.3312 50.9952 12.3316 50.816V44.7011C12.3311 44.522 12.3783 44.3459 12.4683 44.1908C12.5583 44.0357 12.6879 43.9072 12.8439 43.8181L14.9891 42.5884C15.1444 42.4974 15.3213 42.4499 15.5014 42.4508C15.6803 42.4496 15.856 42.4972 16.0097 42.5884L18.1549 43.8181C18.3106 43.9076 18.4398 44.0363 18.5298 44.1913C18.6197 44.3463 18.6671 44.5221 18.6672 44.7011V50.812C18.6671 50.9919 18.7144 51.1686 18.8043 51.3246C18.8942 51.4806 19.0235 51.6103 19.1795 51.701L24.2104 54.5691C24.2872 54.6159 24.3755 54.6408 24.4655 54.6408C24.5556 54.6408 24.6439 54.6159 24.7207 54.5691C24.7981 54.5248 24.8624 54.4609 24.907 54.3839C24.9516 54.3069 24.975 54.2195 24.9748 54.1306L24.9988 41.0477Z" fill="white"/>
<path fill-rule="evenodd" clip-rule="evenodd" d="M65.7799 23.0639C65.7019 23.0208 65.614 22.9988 65.5249 23C65.4357 23.0012 65.3484 23.0256 65.2716 23.0707C65.1948 23.1158 65.1312 23.1801 65.0869 23.2572C65.0427 23.3343 65.0195 23.4215 65.0195 23.5103V36.4657C65.0196 36.5284 65.003 36.5901 64.9715 36.6445C64.9401 36.6989 64.8947 36.744 64.8401 36.7753C64.7855 36.8067 64.7236 36.8231 64.6605 36.823C64.5975 36.8229 64.5356 36.8062 64.4812 36.7746L62.36 35.5568C62.2042 35.4672 62.0275 35.4201 61.8477 35.4201C61.6678 35.4201 61.4911 35.4672 61.3354 35.5568L52.8565 40.43C52.701 40.5197 52.5719 40.6484 52.482 40.8033C52.3921 40.9583 52.3446 41.134 52.3442 41.313V51.0634C52.3446 51.2423 52.3921 51.4181 52.482 51.573C52.5719 51.7279 52.701 51.8567 52.8565 51.9463L61.3354 56.8235C61.4909 56.9137 61.6677 56.9612 61.8477 56.9612C62.0276 56.9612 62.2044 56.9137 62.36 56.8235L70.8368 51.9463C70.9921 51.8566 71.1209 51.7278 71.2105 51.5728C71.3 51.4179 71.3471 51.2422 71.3471 51.0634V26.7591C71.3484 26.579 71.3018 26.4018 71.2122 26.2453C71.1226 26.0889 70.9931 25.9588 70.8368 25.8682L65.7799 23.0639ZM64.9935 47.8604C64.9936 47.905 64.9818 47.9488 64.9593 47.9873C64.9368 48.0259 64.9044 48.0577 64.8654 48.0797L61.9557 49.7519C61.9169 49.7745 61.8727 49.7864 61.8277 49.7864C61.7827 49.7864 61.7385 49.7745 61.6996 49.7519L58.7879 48.0797C58.749 48.0577 58.7166 48.0259 58.694 47.9873C58.6715 47.9488 58.6597 47.905 58.6598 47.8604V44.5119C58.6596 44.4671 58.6713 44.4229 58.6938 44.3841C58.7163 44.3452 58.7488 44.313 58.7879 44.2907L61.6996 42.6165C61.7385 42.5939 61.7827 42.582 61.8277 42.582C61.8727 42.582 61.9169 42.5939 61.9557 42.6165L64.8654 44.2907C64.9045 44.313 64.937 44.3452 64.9595 44.3841C64.982 44.4229 64.9937 44.4671 64.9935 44.5119V47.8604Z" fill="white"/>
<path fill-rule="evenodd" clip-rule="evenodd" d="M94.0162 44.4248C94.171 44.3346 94.2993 44.2057 94.3885 44.0508C94.4777 43.8959 94.5246 43.7204 94.5245 43.5418V41.18C94.5246 41.0014 94.4775 40.826 94.388 40.6713C94.2984 40.5167 94.1695 40.3883 94.0142 40.299L85.5894 35.4258C85.4337 35.3362 85.257 35.2891 85.0771 35.2891C84.8973 35.2891 84.7206 35.3362 84.5648 35.4258L76.088 40.299C75.9323 40.3885 75.8031 40.5172 75.7132 40.6722C75.6232 40.8271 75.5758 41.003 75.5757 41.1819V50.9284C75.5757 51.1086 75.6237 51.2857 75.7148 51.4415C75.8058 51.5972 75.9366 51.7262 76.094 51.8153L84.5168 56.5988C84.6695 56.6844 84.8418 56.7293 85.0171 56.7293C85.1923 56.7293 85.3646 56.6844 85.5174 56.5988L90.6123 53.7785C90.6909 53.7337 90.7562 53.669 90.8016 53.5909C90.847 53.5129 90.8709 53.4243 90.8709 53.3341C90.8709 53.2439 90.847 53.1553 90.8016 53.0772C90.7562 52.9992 90.6909 52.9345 90.6123 52.8896L82.0814 48.0144C82.0036 47.9694 81.939 47.9049 81.894 47.8272C81.8491 47.7496 81.8254 47.6616 81.8253 47.5719V44.5264C81.8253 44.4371 81.849 44.3493 81.894 44.2719C81.9389 44.1946 82.0036 44.1305 82.0814 44.0859L84.7449 42.5532C84.8227 42.5082 84.9111 42.4846 85.0011 42.4846C85.091 42.4846 85.1794 42.5082 85.2572 42.5532L87.9127 44.078C87.9905 44.1225 88.0552 44.1866 88.1002 44.264C88.1451 44.3413 88.1688 44.4291 88.1689 44.5185V46.9182C88.1685 47.0079 88.192 47.0961 88.2369 47.1738C88.2818 47.2515 88.3466 47.316 88.4246 47.3608C88.5027 47.4055 88.5912 47.4289 88.6813 47.4285C88.7713 47.4281 88.8597 47.404 88.9373 47.3587L94.0162 44.4248Z" fill="white"/>
<path fill-rule="evenodd" clip-rule="evenodd" d="M84.953 43.9676C84.9834 43.9501 85.0179 43.9409 85.0531 43.9409C85.0882 43.9409 85.1227 43.9501 85.1531 43.9676L86.7801 44.9024C86.8096 44.9199 86.8342 44.9446 86.8514 44.9743C86.8686 45.004 86.8778 45.0376 86.8781 45.0718V46.9434C86.8778 46.9776 86.8686 47.0112 86.8514 47.0409C86.8342 47.0706 86.8096 47.0953 86.7801 47.1128L85.1531 48.0476C85.1227 48.0651 85.0882 48.0743 85.0531 48.0743C85.0179 48.0743 84.9834 48.0651 84.953 48.0476L83.3261 47.1168C83.2965 47.0993 83.2719 47.0745 83.2548 47.0449C83.2376 47.0152 83.2284 46.9816 83.228 46.9474V45.0758C83.2284 45.0416 83.2376 45.008 83.2548 44.9783C83.2719 44.9486 83.2965 44.9239 83.3261 44.9064L84.953 43.9676Z" fill="#679E63"/>
<path fill-rule="evenodd" clip-rule="evenodd" d="M39.1813 35.4753C39.0268 35.3863 38.8515 35.3394 38.673 35.3394C38.4945 35.3394 38.3192 35.3863 38.1647 35.4753L29.7319 40.3206C29.5773 40.41 29.449 40.5382 29.3598 40.6924C29.2706 40.8467 29.2237 41.0216 29.2236 41.1996V50.9042C29.2237 51.0822 29.2706 51.257 29.3598 51.4113C29.449 51.5656 29.5773 51.6938 29.7319 51.7831L38.1627 56.6324C38.3179 56.7216 38.4939 56.7686 38.673 56.7686C38.8522 56.7686 39.0282 56.7216 39.1833 56.6324L47.6121 51.7831C47.7667 51.6938 47.895 51.5656 47.9842 51.4113C48.0734 51.257 48.1204 51.0822 48.1204 50.9042V41.1996C48.1204 41.0216 48.0734 40.8467 47.9842 40.6924C47.895 40.5382 47.7667 40.41 47.6121 40.3206L39.1813 35.4753Z" fill="url(#paint0_linear)"/>
<path d="M47.623 40.3206L39.1722 35.4753C39.0892 35.4285 39.0004 35.393 38.908 35.3696L29.4126 51.5459C29.4945 51.6379 29.5904 51.7166 29.6968 51.7791L38.1656 56.6284C38.2837 56.6955 38.414 56.7388 38.549 56.7555C38.684 56.7723 38.821 56.7623 38.952 56.726L47.8511 40.496C47.7838 40.4271 47.707 40.368 47.623 40.3206Z" fill="url(#paint1_linear)"/>
<path d="M37.8822 33.6934L37.7661 33.7591H37.9202L37.8822 33.6934Z" fill="url(#paint2_linear)"/>
<path d="M47.6329 51.7792C47.8778 51.6375 48.0568 51.4055 48.1312 51.1334L38.8619 35.3577C38.6172 35.3079 38.3626 35.3483 38.1455 35.4713L29.7407 40.2887L38.8179 56.754C38.9488 56.7358 39.0751 56.6932 39.1901 56.6284L47.6329 51.7792Z" fill="url(#paint3_linear)"/>
<path d="M48.4178 51.6215L48.3618 51.5278V51.6534L48.4178 51.6215Z" fill="url(#paint4_linear)"/>
<path d="M47.6338 51.7792L39.193 56.6285C39.078 56.6932 38.9517 56.7358 38.8208 56.754L38.9889 57.059L48.3622 51.6536V51.528L48.1321 51.1294C48.0587 51.403 47.8796 51.6366 47.6338 51.7792Z" fill="url(#paint5_linear)"/>
<path d="M47.6338 51.7792L39.193 56.6285C39.078 56.6932 38.9517 56.7358 38.8208 56.754L38.9889 57.059L48.3622 51.6536V51.528L48.1321 51.1294C48.0587 51.403 47.8796 51.6366 47.6338 51.7792Z" fill="url(#paint6_linear)"/>
<defs>
<linearGradient id="paint0_linear" x1="42.101" y1="39.0849" x2="34.5318" y2="54.5855" gradientUnits="userSpaceOnUse">
<stop stop-color="#3F873F"/>
<stop offset="0.33" stop-color="#3F8B3D"/>
<stop offset="0.64" stop-color="#3E9637"/>
<stop offset="0.93" stop-color="#3DA92E"/>
<stop offset="1" stop-color="#3DAE2B"/>
</linearGradient>
<linearGradient id="paint1_linear" x1="37.3871" y1="47.1849" x2="58.7007" y2="31.3734" gradientUnits="userSpaceOnUse">
<stop offset="0.14" stop-color="#3F873F"/>
<stop offset="0.4" stop-color="#529F44"/>
<stop offset="0.71" stop-color="#63B649"/>
<stop offset="0.91" stop-color="#6ABF4B"/>
</linearGradient>
<linearGradient id="paint2_linear" x1="28.9252" y1="33.7272" x2="48.4181" y2="33.7272" gradientUnits="userSpaceOnUse">
<stop offset="0.09" stop-color="#6ABF4B"/>
<stop offset="0.29" stop-color="#63B649"/>
<stop offset="0.6" stop-color="#529F44"/>
<stop offset="0.86" stop-color="#3F873F"/>
</linearGradient>
<linearGradient id="paint3_linear" x1="2136.55" y1="2511.8" x2="3927.97" y2="2511.8" gradientUnits="userSpaceOnUse">
<stop offset="0.09" stop-color="#6ABF4B"/>
<stop offset="0.29" stop-color="#63B649"/>
<stop offset="0.6" stop-color="#529F44"/>
<stop offset="0.86" stop-color="#3F873F"/>
</linearGradient>
<linearGradient id="paint4_linear" x1="54.7806" y1="69.5396" x2="60.2385" y2="69.5396" gradientUnits="userSpaceOnUse">
<stop offset="0.09" stop-color="#6ABF4B"/>
<stop offset="0.29" stop-color="#63B649"/>
<stop offset="0.6" stop-color="#529F44"/>
<stop offset="0.86" stop-color="#3F873F"/>
</linearGradient>
<linearGradient id="paint5_linear" x1="1131.89" y1="976.203" x2="2061.32" y2="976.203" gradientUnits="userSpaceOnUse">
<stop offset="0.09" stop-color="#6ABF4B"/>
<stop offset="0.29" stop-color="#63B649"/>
<stop offset="0.6" stop-color="#529F44"/>
<stop offset="0.86" stop-color="#3F873F"/>
</linearGradient>
<linearGradient id="paint6_linear" x1="2196.81" y1="516.009" x2="1945.53" y2="1340.83" gradientUnits="userSpaceOnUse">
<stop stop-color="#3F873F"/>
<stop offset="0.33" stop-color="#3F8B3D"/>
<stop offset="0.64" stop-color="#3E9637"/>
<stop offset="0.93" stop-color="#3DA92E"/>
<stop offset="1" stop-color="#3DAE2B"/>
</linearGradient>
</defs>
</svg>
