<svg width="100" height="100" viewBox="0 0 100 100" fill="none" xmlns="http://www.w3.org/2000/svg">
<path d="M99 50.0101C99 43.4639 90.87 37.2602 78.4052 33.4131C81.2817 20.6029 80.0033 10.4111 74.3702 7.14809C73.0718 6.3827 71.5536 6.02014 69.8956 6.02014V10.5118C70.8145 10.5118 71.5536 10.6931 72.1729 11.0355C74.8895 12.6065 76.0681 18.5887 75.1492 26.2829C74.9295 28.1762 74.5699 30.1703 74.1305 32.2046C70.2152 31.2378 65.9405 30.4926 61.446 30.0092C58.7493 26.2829 55.9527 22.8991 53.1362 19.9382C59.6482 13.8352 65.7607 10.4916 69.9156 10.4916V6C64.4223 6 57.2311 9.94782 49.9601 16.7961C42.689 9.9881 35.4978 6.08057 30.0045 6.08057V10.5722C34.1394 10.5722 40.2719 13.8956 46.7839 19.9583C43.9874 22.9192 41.1908 26.2829 38.534 30.0092C34.0196 30.4926 29.7448 31.2378 25.8296 32.2248C25.3702 30.2106 25.0306 28.2568 24.7909 26.3836C23.852 18.6894 25.0106 12.7073 27.7073 11.116C28.3066 10.7535 29.0856 10.5924 30.0045 10.5924V6.10071C28.3265 6.10071 26.8084 6.46326 25.49 7.22866C19.8769 10.4916 18.6184 20.6633 21.5149 33.4333C9.09009 37.3005 1 43.4841 1 50.0101C1 56.5562 9.13004 62.7599 21.5948 66.607C18.7183 79.4172 19.9967 89.6091 25.6298 92.872C26.9283 93.6374 28.4464 94 30.1243 94C35.6176 94 42.8088 90.0522 50.0799 83.2039C57.351 90.0119 64.5422 93.9194 70.0355 93.9194C71.7134 93.9194 73.2316 93.5569 74.5499 92.7915C80.1631 89.5285 81.4215 79.3568 78.5251 66.5869C90.9099 62.7397 99 56.536 99 50.0101ZM72.9918 36.5754C72.2527 39.1737 71.3339 41.8526 70.2951 44.5315C69.4761 42.9201 68.6172 41.3088 67.6784 39.6974C66.7595 38.0861 65.7807 36.515 64.8019 34.9842C67.6384 35.4072 70.375 35.9309 72.9918 36.5754ZM63.843 58.0265C62.285 60.7457 60.6869 63.3239 59.0289 65.7208C56.0526 65.9826 53.0363 66.1236 50 66.1236C46.9837 66.1236 43.9674 65.9826 41.011 65.7409C39.353 63.344 37.735 60.786 36.1769 58.087C34.6588 55.4484 33.2805 52.7695 32.022 50.0705C33.2605 47.3715 34.6588 44.6725 36.157 42.0339C37.715 39.3147 39.3131 36.7365 40.9711 34.3397C43.9474 34.0778 46.9637 33.9368 50 33.9368C53.0163 33.9368 56.0326 34.0778 58.989 34.3195C60.647 36.7164 62.265 39.2744 63.8231 41.9734C65.3412 44.612 66.7195 47.2909 67.978 49.9899C66.7195 52.6889 65.3412 55.388 63.843 58.0265ZM70.2951 55.4081C71.3738 58.1071 72.2927 60.8061 73.0518 63.4246C70.435 64.0691 67.6784 64.613 64.8219 65.0359C65.8007 63.485 66.7795 61.8938 67.6983 60.2623C68.6172 58.6509 69.4761 57.0194 70.2951 55.4081ZM50.04 76.8995C48.1822 74.9659 46.3245 72.8107 44.4868 70.4541C46.2846 70.5347 48.1223 70.5951 49.98 70.5951C51.8577 70.5951 53.7155 70.5548 55.5332 70.4541C53.7354 72.8107 51.8777 74.9659 50.04 76.8995ZM35.1781 65.0359C32.3416 64.613 29.605 64.0893 26.9882 63.4447C27.7273 60.8464 28.6461 58.1675 29.6849 55.4887C30.5039 57.1 31.3628 58.7114 32.3017 60.3227C33.2405 61.9341 34.1993 63.5051 35.1781 65.0359ZM49.9401 23.1206C51.7978 25.0542 53.6555 27.2094 55.4933 29.566C53.6955 29.4855 51.8577 29.425 50 29.425C48.1223 29.425 46.2646 29.4653 44.4468 29.566C46.2446 27.2094 48.1023 25.0542 49.9401 23.1206ZM35.1582 34.9842C34.1794 36.5351 33.2006 38.1263 32.2817 39.7578C31.3628 41.3692 30.5039 42.9805 29.6849 44.5919C28.6062 41.8929 27.6873 39.1939 26.9283 36.5754C29.545 35.951 32.3017 35.4072 35.1582 34.9842ZM17.0803 60.2019C10.009 57.1604 5.43457 53.1723 5.43457 50.0101C5.43457 46.8478 10.009 42.8395 17.0803 39.8183C18.7982 39.073 20.6759 38.4083 22.6135 37.7839C23.7521 41.7317 25.2503 45.8407 27.108 50.0504C25.2703 54.2399 23.7921 58.3287 22.6735 62.2563C20.6959 61.6319 18.8182 60.9471 17.0803 60.2019ZM27.8272 88.9847C25.1105 87.4136 23.9319 81.4314 24.8508 73.7372C25.0705 71.8439 25.4301 69.8498 25.8696 67.8155C29.7848 68.7823 34.0595 69.5276 38.554 70.011C41.2507 73.7372 44.0473 77.1211 46.8638 80.0819C40.3518 86.1849 34.2393 89.5285 30.0844 89.5285C29.1855 89.5083 28.4264 89.3271 27.8272 88.9847ZM75.2091 73.6365C76.148 81.3307 74.9894 87.3129 72.2927 88.9041C71.6934 89.2666 70.9144 89.4278 69.9955 89.4278C65.8606 89.4278 59.7281 86.1044 53.2161 80.0417C56.0126 77.0808 58.8092 73.7171 61.466 69.9908C65.9804 69.5074 70.2552 68.7622 74.1704 67.7752C74.6298 69.8096 74.9894 71.7633 75.2091 73.6365ZM82.8997 60.2019C81.1818 60.9471 79.3041 61.6118 77.3665 62.2362C76.2279 58.2884 74.7297 54.1794 72.872 49.9698C74.7097 45.7803 76.1879 41.6915 77.3066 37.7638C79.2841 38.3882 81.1618 39.073 82.9197 39.8183C89.991 42.8597 94.5654 46.8478 94.5654 50.0101C94.5455 53.1723 89.9711 57.1806 82.8997 60.2019Z" fill="#61DAFB"/>
<path d="M50.5 59C55.7467 59 60 54.7467 60 49.5C60 44.2533 55.7467 40 50.5 40C45.2533 40 41 44.2533 41 49.5C41 54.7467 45.2533 59 50.5 59Z" fill="#61DAFB"/>
</svg>
