<svg width="100" height="100" viewBox="0 0 100 100" fill="none" xmlns="http://www.w3.org/2000/svg">
<path d="M96.0819 72.6879C90.7454 75.4663 63.1 86.8196 57.2143 89.884C51.329 92.9493 48.0593 92.9196 43.4099 90.6995C38.7606 88.4794 9.34092 76.6099 4.04153 74.08C1.39262 72.8155 0 71.7483 0 70.7401V60.6444C0 60.6444 38.3004 52.3161 44.4838 50.1007C50.6668 47.8849 52.8122 47.8049 58.0741 49.73C63.3364 51.6555 94.7994 57.3255 100 59.228C100 59.228 99.9977 68.245 99.9977 69.181C99.9984 70.1791 98.7984 71.2739 96.0819 72.6879Z" fill="#912626"/>
<path d="M96.08 62.6512C90.7437 65.4284 63.0992 76.7821 57.2137 79.8465C51.3285 82.912 48.059 82.8819 43.4098 80.6619C38.7602 78.4434 9.34185 66.572 4.04264 64.0433C-1.25658 61.5131 -1.36791 59.7718 3.83795 57.736C9.04341 55.6993 38.3004 44.2344 44.4844 42.0187C50.6672 39.8038 52.8121 39.723 58.0738 41.6488C63.3359 43.5739 90.8156 54.4988 96.0156 56.4008C101.217 58.3052 101.416 59.8729 96.08 62.6512Z" fill="#C6302B"/>
<path d="M96.0819 56.3518C90.7454 59.1302 63.1 70.4835 57.2143 73.5491C51.329 76.6132 48.0593 76.5835 43.4099 74.3634C38.7602 72.1445 9.34092 60.2738 4.04153 57.744C1.39262 56.4794 0 55.4134 0 54.4052V44.3083C0 44.3083 38.3004 35.9804 44.4838 33.7646C50.6668 31.5492 52.8122 31.4688 58.0741 33.3939C63.3364 35.3195 94.7994 40.9883 100 42.8912C100 42.8912 99.9977 51.9081 99.9977 52.8453C99.9984 53.843 98.7984 54.9378 96.0819 56.3518Z" fill="#912626"/>
<path d="M96.08 46.3156C90.7437 49.0936 63.0992 60.4465 57.2137 63.512C51.3285 66.5763 48.059 66.5463 43.4098 64.3263C38.7602 62.1078 9.34185 50.2367 4.04264 47.7077C-1.25658 45.1783 -1.36791 43.4366 3.83795 41.3999C9.04341 39.3645 38.3004 27.8988 44.4844 25.6834C50.6672 23.4681 52.8121 23.3877 58.0738 25.3132C63.3359 27.2382 90.8156 38.1624 96.0156 40.0652C101.217 41.9688 101.416 43.5373 96.08 46.3152V46.3156Z" fill="#C6302B"/>
<path d="M96.0819 39.4104C90.7454 42.1888 63.1 53.5425 57.2143 56.6081C51.329 59.6725 48.0593 59.6425 43.4099 57.4224C38.7602 55.2034 9.34092 43.3324 4.04153 40.8033C1.39262 39.5383 0 38.472 0 37.4646V27.3672C0 27.3672 38.3004 19.0397 44.4838 16.8243C50.6668 14.6085 52.8122 14.5285 58.0741 16.4537C63.3364 18.3792 94.7994 24.048 100 25.9509C100 25.9509 99.9977 34.9678 99.9977 35.9046C99.9984 36.9015 98.7984 37.9964 96.0819 39.4104Z" fill="#912626"/>
<path d="M96.08 29.3742C90.7437 32.1522 63.0992 43.5059 57.2137 46.5706C51.3285 49.6349 48.059 49.6049 43.4098 47.3856C38.7606 45.1664 9.34185 33.2961 4.04264 30.7667C-1.25658 28.2373 -1.36791 26.4952 3.83795 24.459C9.04341 22.4231 38.3004 10.9586 44.4844 8.74245C50.6672 6.52673 52.8121 6.44713 58.0738 8.37258C63.3359 10.298 90.8156 21.2222 96.0156 23.125C101.217 25.0274 101.416 26.5963 96.08 29.3742Z" fill="#C6302B"/>
<path d="M62.2197 19.5528L53.6224 20.4444L51.6976 25.0699L48.5887 19.9082L38.6611 19.017L46.0689 16.3488L43.8464 12.2529L50.7817 14.9621L57.3201 12.824L55.553 17.0592L62.2197 19.5528Z" fill="white"/>
<path d="M51.1844 41.9943L35.1387 35.3472L58.1313 31.8223L51.1844 41.9943Z" fill="white"/>
<path d="M28.9381 22.124C35.7253 22.124 41.2272 24.2544 41.2272 26.8819C41.2272 29.5098 35.7253 31.6399 28.9381 31.6399C22.1512 31.6399 16.6489 29.5098 16.6489 26.8819C16.6489 24.2544 22.1512 22.124 28.9381 22.124Z" fill="white"/>
<path d="M72.3809 20.8174L85.9886 26.1885L72.3925 31.5543L72.3809 20.8174Z" fill="#621B1C"/>
<path d="M57.3262 26.7654L72.3808 20.8174L72.3924 31.5543L70.9165 32.1311L57.3262 26.7654Z" fill="#9A2928"/>
</svg>
