<?xml version="1.0" encoding="iso-8859-1"?>
<!-- Generator: Adobe Illustrator 19.0.0, SVG Export Plug-In . SVG Version: 6.00 Build 0)  -->
<svg version="1.1" id="Capa_1" xmlns="http://www.w3.org/2000/svg" xmlns:xlink="http://www.w3.org/1999/xlink" x="0px" y="0px"
	 viewBox="0 0 512 512" style="enable-background:new 0 0 512 512;" xml:space="preserve">
<path style="fill:#E54801;" d="M438.154,83.692H73.846C33.127,83.692,0,116.82,0,157.538v196.923
	c0,40.719,33.127,73.846,73.846,73.846h364.308c40.719,0,73.846-33.127,73.846-73.846V157.538
	C512,116.82,478.873,83.692,438.154,83.692z"/>
<path style="fill:#FB7A0D;" d="M255.999,83.692H73.846C33.127,83.692,0,116.82,0,157.538v196.923
	c0,40.719,33.127,73.846,73.846,73.846h182.153V83.692z"/>
<path style="fill:#FFD722;" d="M364.296,329.847c-3.084,0-6.193-0.963-8.85-2.955l-78.769-59.077
	c-5.086-3.814-7.159-10.455-5.15-16.485c2.011-6.031,7.654-10.099,14.011-10.099h49.231c8.144,0,14.769-6.625,14.769-14.769
	c0-8.144-6.625-14.769-14.769-14.769h-59.795L219.98,321.682c-2.502,5.004-7.616,8.164-13.211,8.164s-10.709-3.161-13.21-8.164
	l-59.077-118.154c-3.648-7.295-0.691-16.167,6.605-19.814c7.296-3.651,16.167-0.691,19.814,6.605l45.867,91.734l45.867-91.734
	c2.501-5.004,7.615-8.164,13.21-8.164h68.923c24.431,0,44.308,19.876,44.308,44.308s-19.876,44.308-44.308,44.308h-4.923
	l43.323,32.492c6.525,4.895,7.848,14.152,2.954,20.677C373.222,327.807,368.787,329.847,364.296,329.847z"/>
<path style="fill:#FFE63F;" d="M255.999,185.927c-1.364,1.221-2.516,2.697-3.362,4.391l-45.867,91.734l-45.867-91.734
	c-3.647-7.296-12.518-10.256-19.814-6.605c-7.296,3.647-10.253,12.519-6.605,19.814l59.077,118.154
	c2.501,5.004,7.615,8.164,13.21,8.164s10.709-3.161,13.21-8.164l36.02-72.039V185.927z"/>
<g>
</g>
<g>
</g>
<g>
</g>
<g>
</g>
<g>
</g>
<g>
</g>
<g>
</g>
<g>
</g>
<g>
</g>
<g>
</g>
<g>
</g>
<g>
</g>
<g>
</g>
<g>
</g>
<g>
</g>
</svg>
