<svg width="100" height="75" viewBox="0 0 100 75" fill="none" xmlns="http://www.w3.org/2000/svg">
<path d="M95.8333 8.33333V66.1792L91.6667 66.6667V0C75.4375 0.495833 60.3958 3.175 49.9917 9.65C39.5917 3.175 24.5667 0.495833 8.33333 0V66.6667L4.16667 66.1792V8.33333H0V70.8333H37.7375C43.9 70.8333 44.575 75 49.9917 75C55.425 75 56.0792 70.8333 62.25 70.8333H100V8.33333H95.8333ZM45.8333 65.1875C37.725 61.9708 28.5958 59.9 16.6667 59.0042V8.79167C26.4667 9.6125 37.4833 11.6042 45.8333 16.8V65.1875ZM83.3333 59.0042C71.4042 59.9 62.275 61.9708 54.1667 65.1875V16.8C62.5167 11.6042 73.5333 9.6125 83.3333 8.79167V59.0042Z" fill="white"/>
</svg>
