<svg width="113" height="134" viewBox="0 0 113 134" fill="none" xmlns="http://www.w3.org/2000/svg">
<path d="M102.387 124.312C102.387 124.312 91.6988 57.3723 45.9471 27.623L29.9524 37.3183C75.6816 67.0978 86.3848 134 86.3848 134" fill="#B35112"/>
<path d="M27.2691 17.333L25.7809 45.5745L54.9216 22.8441L27.2691 17.333Z" fill="#B35112"/>
<path d="M113 103.286C113 103.286 54.7788 68.8697 2.766 85.1919L0 103.753C52.0128 87.4084 110.234 121.847 110.234 121.847" fill="white"/>
<path d="M14.9198 122.216C14.9198 122.216 25.9312 44.9179 72.9832 10.5547L89.4439 21.7578C42.3919 56.1135 31.3805 133.442 31.3805 133.442" fill="#2F7EE6"/>
<path d="M93.3449 0L61.3781 5.96343L94.6602 32.584L93.3449 0Z" fill="#2F7EE6"/>
</svg>
