<svg width="87" height="88" viewBox="0 0 87 88" fill="none" xmlns="http://www.w3.org/2000/svg">
<path fill-rule="evenodd" clip-rule="evenodd" d="M62.9128 74.3117C62.2736 72.8131 62.1219 71.7911 61.8692 70.2745C64.1261 67.7575 66.1628 65.1034 67.9792 62.3156C70.0736 61.6078 72.5689 60.7339 76.2161 58.8634C73.3453 65.2045 68.705 70.5597 62.9128 74.3117ZM33.3703 78.6884C37.1222 76.6734 40.1953 74.3803 43.5933 71.8309C47.2478 72.7445 51.1008 73.2572 55.1272 73.4306L55.1308 73.4559C55.4306 75.0267 55.8711 76.3556 56.4381 77.6195C49.2628 80.4253 41.3364 80.9778 33.3703 78.6884ZM7.22583 43.9531L11.8228 48.3478C11.1222 52.2334 10.9272 55.8192 10.9778 59.9539C8.59805 55.1367 7.22222 49.7345 7.22222 44L7.22583 43.9531ZM48.2878 8.26808L45.5506 14.5406C37.8264 16.5628 33.3306 18.6031 26.7222 22.1492L16.3836 20.0331C24.0681 11.4061 35.6561 6.52752 48.2878 8.26808ZM41.7733 50.7672C37.8625 48.1456 34.7642 45.4806 29.2572 40.9197L31.2289 28.0064C36.4506 24.9442 40.495 23.5322 47.3958 21.3295C51.0033 23.8103 54.5603 26.4861 57.9908 29.3317L57.9836 29.4147C57.4853 35.6945 56.4669 40.4864 54.9322 45.6467C50.6133 47.5389 46.2294 49.2506 41.7733 50.7672ZM24.5917 74.8209C22.5875 73.5967 20.7206 72.192 18.9981 70.6175C18.0736 63.6806 17.6944 56.5703 18.9872 49.4384L18.9908 49.4239L25.1875 46.7336C29.5606 50.7997 33.6592 53.9703 38.4619 57.307L38.6894 66.425C33.9119 70.2022 30.1347 72.7011 24.5917 74.8209ZM79.1483 48.42C75.5372 51.0272 72.735 52.8436 68.2247 54.4975L61.9631 47.25C63.5917 42.0175 64.6281 36.4167 65.0903 30.1803L74.1144 25.1934C78.2564 31.9534 80.1847 39.8761 79.1483 48.42ZM43.3333 0.666687C19.4169 0.666687 0 20.0836 0 44C0 67.9164 19.4169 87.3334 43.3333 87.3334C67.2497 87.3334 86.6667 67.9164 86.6667 44C86.6667 20.0836 67.2497 0.666687 43.3333 0.666687Z" fill="white"/>
</svg>
